<svg width="1233" height="277" viewBox="0 0 1233 277" fill="none" xmlns="http://www.w3.org/2000/svg">
<path d="M186.369 272.122H138.21L69.5184 51.8446V272.122H23.2262V0.0588706H96.7711L162.476 216.959L227.808 0.0588706H301.353V272.122H255.06V51.8446L186.369 272.122Z" fill="black"/>
<path d="M468.835 272.122V244.352C456.889 266.117 437.103 277 409.477 277C364.678 277 342.278 250.732 342.278 197.445V70.2323H386.704V186.563C386.704 194.818 387.077 201.573 387.824 206.827C388.57 212.455 390.064 218.084 392.304 223.713C394.544 229.342 398.65 233.47 403.877 236.472C409.103 239.474 415.45 240.6 423.663 240.6C453.529 240.6 468.835 219.961 468.835 177.932V70.2323H513.261V272.122H468.835Z" fill="black"/>
<path d="M711.108 125.395H669.296C664.816 108.509 649.883 99.8778 625.243 99.8778C614.79 99.8778 606.204 102.129 598.737 106.257C591.271 110.385 587.911 115.639 587.911 122.018C587.911 134.777 596.871 142.657 614.79 146.035L643.163 151.664C654.363 153.915 663.696 156.542 671.536 159.169C679.375 161.795 686.842 165.173 693.935 169.676C700.655 174.179 705.881 180.183 709.615 186.938C712.975 194.068 714.841 202.323 714.841 211.705C714.841 231.969 706.628 248.105 690.202 259.738C673.775 271.371 653.616 277 629.723 277C605.457 277 585.671 270.996 569.991 258.612C554.312 246.229 544.979 230.093 542.739 210.579H586.044C590.151 232.344 605.084 243.227 631.216 243.227C643.163 243.227 652.869 240.975 660.336 236.097C667.802 231.594 671.536 225.214 671.536 216.959C671.536 203.449 659.962 194.068 636.816 189.189L606.577 183.185C587.538 179.433 572.605 172.678 562.152 163.672C551.325 154.666 546.099 141.531 546.099 124.27C546.099 107.008 553.938 93.1231 569.991 82.2406C586.044 71.3581 605.457 65.7292 627.857 65.7292C648.389 65.7292 666.309 70.9828 681.989 81.1148C697.295 91.6221 707.001 106.257 711.108 125.395Z" fill="black"/>
<path d="M744.844 272.122V0.0588706H846.762C911.72 0.0588706 944.199 23.3249 944.199 69.4818C944.199 81.8653 941.213 93.4984 935.239 104.006C929.266 114.513 922.173 122.393 913.96 127.647C940.839 140.03 954.652 161.42 954.652 191.441C954.652 219.21 945.319 239.474 926.653 252.608C907.987 265.742 883.347 272.122 853.481 272.122H744.844ZM792.256 150.162V233.845H855.348C888.947 233.845 905.747 219.961 905.747 191.441C905.747 177.556 901.267 167.049 892.68 160.294C884.094 153.54 870.654 150.162 852.735 150.162H792.256ZM792.256 38.3353V113.762H851.241C881.107 113.762 896.04 101.004 896.04 74.7354C896.04 63.1024 891.934 54.0962 883.721 47.7167C875.508 41.7126 864.681 38.3353 851.241 38.3353H792.256Z" fill="black"/>
<path d="M954.364 272.122L1055.16 0.0588706H1105.19L1206.73 272.122H1154.84L1133.56 211.705H1023.8L1002.9 272.122H954.364ZM1078.31 55.2219L1037.61 171.927H1119.37L1078.31 55.2219Z" fill="black"/>
<path d="M0 0.0981326H24.309V24.5331C24.309 13.8956 8.10301 3.81081 0 0.0981326Z" fill="black"/>
<path d="M721.558 0.0981326H745.867V24.5331C745.867 13.8956 729.661 3.81081 721.558 0.0981326Z" fill="black"/>
<path d="M1056.22 0H1015.51C1027.72 3.06847 1050.03 14.2354 1043.38 34.6074C1040.35 42.7878 1039.23 45.8248 1042.99 35.7203C1043.13 35.3463 1043.26 34.9754 1043.38 34.6074C1046.68 25.723 1052.22 10.7717 1056.22 0Z" fill="black"/>
<path d="M512.735 272.099V252.227C512.735 267.889 521.912 272.001 526.5 272.099H512.735Z" fill="black"/>
<path d="M256.123 255.243V272.122H239.201C238.714 272.14 238.251 272.139 237.818 272.122H239.201C245.589 271.882 256.123 268.336 256.123 255.243Z" fill="black"/>
<path d="M1206.25 271.974L1196.39 244.841C1202.33 260.778 1223.27 269.57 1233 271.974H1206.25Z" fill="black"/>
</svg>
